<?xml version="1.0" encoding="UTF-8" standalone="no"?>
<svg width="53px" height="51px" viewBox="0 0 53 51" version="1.1" xmlns="http://www.w3.org/2000/svg" xmlns:xlink="http://www.w3.org/1999/xlink" xmlns:sketch="http://www.bohemiancoding.com/sketch/ns">
    <!-- Generator: Sketch 3.2 (9961) - http://www.bohemiancoding.com/sketch -->
    <title>time</title>
    <desc>Created with Sketch.</desc>
    <defs></defs>
    <g id="Page-1" stroke="none" stroke-width="1" fill="none" fill-rule="evenodd" sketch:type="MSPage">
        <g id="time" sketch:type="MSLayerGroup" transform="translate(1.500000, 1.000000)" stroke="#424242" stroke-width="2">
            <ellipse id="Oval-154" sketch:type="MSShapeGroup" transform="translate(25.052632, 25.777778) scale(-1, 1) translate(-25.052632, -25.777778) " cx="25.0526316" cy="25.7777778" rx="22.3684211" ry="22.2222222"></ellipse>
            <path d="M25.0526316,9.33333333 L25.0526316,26.2222222" id="Line" stroke-linecap="square" sketch:type="MSShapeGroup"></path>
            <path d="M34.8947368,20.4444444 L25.9473684,25.9555556" id="Line" stroke-linecap="square" sketch:type="MSShapeGroup"></path>
            <path d="M45.6315789,48 L39.8157895,42.6666667" id="Line" stroke-linecap="square" sketch:type="MSShapeGroup"></path>
            <path d="M9.84210526,48 L4.02631579,42.6666667" id="Line" stroke-linecap="square" sketch:type="MSShapeGroup" transform="translate(7.157895, 45.333333) scale(-1, 1) translate(-7.157895, -45.333333) "></path>
            <path d="M1.14117053,13.7954358 L13.8457118,1.11190705 C13.8457118,1.11190705 11.0051669,0 9.39473684,0 C4.20616696,0 0,4.17867567 0,9.33333333 C0,10.949559 1.14117053,13.7954358 1.14117053,13.7954358 Z" id="Oval-155" sketch:type="MSShapeGroup"></path>
            <path d="M37.4007219,13.7954358 L50.1052632,1.11190705 C50.1052632,1.11190705 47.2647183,0 45.6542882,0 C40.4657183,0 36.2595514,4.17867567 36.2595514,9.33333333 C36.2595514,10.949559 37.4007219,13.7954358 37.4007219,13.7954358 Z" id="Oval-155" sketch:type="MSShapeGroup" transform="translate(43.182407, 6.897718) scale(-1, 1) translate(-43.182407, -6.897718) "></path>
        </g>
    </g>
</svg>