<?xml version="1.0" encoding="UTF-8" standalone="no"?>
<svg width="77px" height="52px" viewBox="0 0 77 52" version="1.1" xmlns="http://www.w3.org/2000/svg" xmlns:xlink="http://www.w3.org/1999/xlink" xmlns:sketch="http://www.bohemiancoding.com/sketch/ns">
    <!-- Generator: Sketch 3.2 (9961) - http://www.bohemiancoding.com/sketch -->
    <title>trust</title>
    <desc>Created with Sketch.</desc>
    <defs></defs>
    <g id="Page-1" stroke="none" stroke-width="1" fill="none" fill-rule="evenodd" sketch:type="MSPage">
        <g id="trust" sketch:type="MSLayerGroup" transform="translate(2.000000, -3.000000)" stroke="#424242" stroke-width="2" fill="#FFFFFF">
            <path d="M57.5168753,33.5731306 C58.4728363,34.5911102 58.564877,36.1097173 57.6841068,37.0759803 C56.8033366,38.0422433 55.4782585,38.3341713 54.3603124,37.4939 C54.3603124,37.4939 53.5603981,37.2902211 53.3545005,37.7416183 C53.1486029,38.1930154 53.6271978,38.822007 53.6271978,38.822007 L55.1634435,39.6164405 C56.1194045,40.6344201 56.2114453,42.1530273 55.330675,43.1192903 C54.4499048,44.0855533 52.9113468,44.1538709 51.7934007,43.3135996 C51.7934007,43.3135996 51.2817302,42.9907992 50.77774,43.0084882 C50.2737499,43.0261771 50.3005093,43.9580647 50.3005093,43.9580647 C51.2564703,44.9760443 51.1534627,46.3043386 50.2726924,47.2706016 C49.3919222,48.2368647 47.7874119,47.9125879 46.6694658,47.0723166 C46.6694658,47.0723166 46.208885,46.8389511 45.6807422,46.8802975 C45.1525995,46.921644 45.0512732,47.4708563 45.0512732,47.4708563 C46.0072341,48.4888359 45.9488701,49.7473607 45.0680999,50.7136237 C44.1873296,51.6798867 42.6487716,51.7482043 41.5308256,50.907933 L39.0060497,49.2338584 L26.2230636,41.5375043 L17.9929527,33.4554745 L14.8308693,29.6770417 C14.5586307,29.3517387 14.156572,29.3721565 13.9227088,29.738527 L14.0720643,29.5045464 C13.612315,30.2247907 12.6550012,30.4433088 11.924804,29.9869706 L0.685747447,22.9630996 C0.323983634,22.7370146 0.221030734,22.2678858 0.460549226,21.9081314 L10.5656818,6.73032168 C10.8030721,6.37376383 11.2888691,6.26823564 11.6513499,6.49499947 L22.7003292,13.4071146 C23.0625368,13.6337076 23.2142257,14.1258851 23.0362856,14.5126181 L22.5903261,15.481862 C22.413662,15.8658218 22.6121744,16.224453 23.0329573,16.2827821 L32.1979421,17.5532366 L53.3858737,30.8086635 L57.5168753,33.5731306 Z" id="Oval-157" sketch:type="MSShapeGroup"></path>
            <g id="Group" transform="translate(27.957447, 42.575342) rotate(-10.000000) translate(-27.957447, -42.575342) translate(16.308511, 31.452055)" sketch:type="MSShapeGroup">
                <path d="M16.0547726,21.3453421 C14.9180192,21.9639237 13.5202037,21.7061733 12.8406106,20.7109244 C12.1610174,19.7156754 12.4427153,18.3388967 13.4544827,17.5372758 L19.6743668,13.2758723 C20.8111201,12.6572906 22.2089357,12.9150411 22.8885288,13.91029 C23.568122,14.9055389 23.2864241,16.2823177 22.2746567,17.0839386 L16.0547726,21.3453421 Z" id="Oval-157"></path>
                <path d="M11.0147693,17.2977119 C9.87801593,17.9162936 8.48020042,17.6585431 7.80060727,16.6632942 C7.12101412,15.6680453 7.40271201,14.2912665 8.41447939,13.4896456 L14.6524694,9.1631663 C15.7892228,8.54458462 17.1870383,8.80233507 17.8666314,9.79758399 C18.5462246,10.7928329 18.2645267,12.1696117 17.2527593,12.9712326 L11.0147693,17.2977119 Z" id="Oval-157"></path>
                <path d="M6.13763046,13.1954966 C5.00087708,13.8140783 3.60306157,13.5563278 2.92346842,12.5610789 C2.24387527,11.56583 2.52557316,10.1890512 3.53734053,9.38743032 L8.66172373,5.91553414 C9.79847712,5.29695246 11.1962926,5.55470292 11.8758858,6.54995184 C12.5554789,7.54520076 12.273781,8.92197952 11.2620137,9.7236004 L6.13763046,13.1954966 Z" id="Oval-157"></path>
                <path d="M3.80499927,7.12480677 C2.66824589,7.74338845 1.27043038,7.48563799 0.590837229,6.49038907 C-0.0887559206,5.49514015 0.192941966,4.1183614 1.20470934,3.31674051 L4.94653974,0.488361577 C6.08329313,-0.130220102 7.48110864,0.127530356 8.16070179,1.12277928 C8.84029494,2.1180282 8.55859705,3.49480695 7.54682967,4.29642784 L3.80499927,7.12480677 Z" id="Oval-157"></path>
            </g>
            <path d="M38.5672572,22.7900214 C38.2126656,22.5495938 37.7760501,22.667854 37.5951649,23.0476214 L34.9984518,28.4994057 C34.0698428,30.1265409 32.1254637,30.8722346 30.4946186,30.1626223 C28.8637735,29.4530101 28.1297634,27.5418975 28.7584388,25.7842553 L32.5737488,17.7915183 C33.5023578,16.164383 35.4467369,15.4186894 37.077582,16.1283016 C37.4241473,16.2790989 41.8613177,16.9282773 41.8613177,16.9282773 L50.2214802,15.4109229 C50.6518306,15.3328151 50.853341,14.9583752 50.6686073,14.5683409 L50.2056213,13.5908233 C50.0222124,13.2035859 50.170489,12.7083208 50.5374238,12.4842406 L61.7221699,5.65392756 C62.0888283,5.43001621 62.5722021,5.53962025 62.7998936,5.89572918 L72.6964266,21.3738812 C72.9249786,21.7313359 72.8132976,22.2024574 72.4463628,22.4265376 L61.2616167,29.2568506 C60.8949583,29.480762 60.373232,29.3918288 60.1010442,29.0639181 L59.3772245,28.1919166 C59.1029164,27.8614515 58.6322801,27.8356814 58.3231344,28.1371805 L56.7477565,29.6735917 C56.4399068,29.9738268 55.9056318,30.0256513 55.5447299,29.7831673 C55.5447299,29.7831673 49.9492704,26.0127526 49.795283,26.0212617 C43.3059341,26.3798519 38.5672572,22.7900214 38.5672572,22.7900214 L38.5672572,22.7900214 Z" id="Oval-158" sketch:type="MSShapeGroup"></path>
        </g>
    </g>
</svg>